<svg width="15" height="12" viewBox="0 0 15 12" fill="none" xmlns="http://www.w3.org/2000/svg">
<path d="M13.5381 0.0234375H1.43941C1.21296 0.0234375 1.00269 0.0719428 0.808594 0.168953L7.48877 5.58537L14.1689 0.168953C13.9748 0.0719428 13.7808 0.0234375 13.5381 0.0234375Z" fill="#FFB23F"/>
<path d="M7.94175 7.07294C7.81235 7.18611 7.65061 7.23462 7.48886 7.23462C7.32711 7.23462 7.16537 7.18611 7.03597 7.07294L0 1.36548C0 1.39782 0 1.41398 0 1.46249V10.2419C0 11.0342 0.646986 11.6809 1.43954 11.6809H13.5544C14.3469 11.6809 14.9939 11.0342 14.9939 10.2419V1.46249C14.9939 1.43015 14.9939 1.41398 14.9939 1.36548L7.94175 7.07294Z" fill="#FFB23F"/>
</svg>
