<svg width="70" height="70" viewBox="0 0 70 70" fill="none" xmlns="http://www.w3.org/2000/svg">
<path d="M29.9129 12.5957C30.0508 9.49343 31.1564 6.48432 31.9674 5C32.058 5.05293 32.1543 5.10899 32.2559 5.16813C34.672 6.57496 40.0861 9.72747 44.3965 14.1442C47.404 16.4864 49.797 20.377 49.797 25.0479C49.797 28.6579 48.4204 31.5572 47.1164 34.3035C44.7045 39.3831 42.5412 43.9392 49.797 51.5007C40.2351 53.363 21.6551 56.1198 20.9903 52.9526C19.7338 46.9658 20.8558 43.6334 21.7051 41.1109C22.1913 39.6669 22.5881 38.4883 22.3982 37.2291C16.6004 39.4308 12.7219 34.4202 10.7386 31.8582C10.4532 31.4894 10.207 31.1714 10 30.9329C12.5955 27.0152 17.5584 20.8856 20.9903 17.3556C23.4707 14.8043 26.6241 13.3724 29.9129 12.5957Z" fill="#DCFFE2" stroke="#34AA47" stroke-width="7.5" stroke-linecap="round" stroke-linejoin="round"/>
<path d="M20.3711 37.7784C23.4114 37.0572 25.1686 36.1395 27.601 34.8282" stroke="#34AA47" stroke-width="7.5" stroke-linecap="round" stroke-linejoin="round"/>
<path d="M55.0746 57.9856C55.3655 60.2804 55.5824 62.6218 55.5824 64.9999H12.3608C12.3608 62.6218 12.5777 60.2804 12.8686 57.9856C13.4727 53.2188 17.4738 49.5021 22.261 49.0901C26.0676 48.7625 29.9801 48.4747 33.9716 48.4747C37.9631 48.4747 41.8756 48.7625 45.6822 49.0901C50.4694 49.5021 54.4705 53.2188 55.0746 57.9856Z" fill="#DCFFE2" stroke="#34AA47" stroke-width="7.5" stroke-linejoin="round"/>
</svg>
