<svg width="70" height="62" viewBox="0 0 70 62" fill="none" xmlns="http://www.w3.org/2000/svg">
<ellipse cx="25.3629" cy="45.0994" rx="13.0875" ry="12.8906" stroke="#D541AC" stroke-width="7.5"/>
<path d="M11.0906 37.153L55.1607 50.8334C56.1207 51.1314 57.1472 51.3592 58.1014 51.043C68.566 47.5747 68.566 7.63037 58.1014 4.16216C57.1472 3.84592 56.1207 4.07372 55.1607 4.37173L11.0906 18.0521C1.71019 20.964 1.71019 34.2411 11.0906 37.153Z" fill="#FFD0F2"/>
<path d="M55.1607 50.8334L54.0489 54.4148H54.0489L55.1607 50.8334ZM11.0906 37.153L9.97886 40.7344L11.0906 37.153ZM11.0906 18.0521L9.97886 14.4707H9.97886L11.0906 18.0521ZM55.1607 4.37173L54.0489 0.79032L54.0489 0.790321L55.1607 4.37173ZM58.1014 4.16216L59.2811 0.602562V0.602561L58.1014 4.16216ZM58.1014 51.043L59.2811 54.6026H59.2811L58.1014 51.043ZM56.2724 47.252L12.2024 33.5716L9.97886 40.7344L54.0489 54.4148L56.2724 47.252ZM12.2024 33.5716C6.33961 31.7516 6.3396 23.4535 12.2024 21.6335L9.97886 14.4707C-2.91922 18.4746 -2.91923 36.7305 9.97886 40.7344L12.2024 33.5716ZM12.2024 21.6335L56.2724 7.95314L54.0489 0.790321L9.97886 14.4707L12.2024 21.6335ZM56.2724 7.95314C56.6733 7.8287 56.9027 7.77962 57.0442 7.76402C57.1673 7.75044 57.0925 7.77836 56.9217 7.72175L59.2811 0.602561C57.1012 -0.119913 55.0482 0.480116 54.0489 0.79032L56.2724 7.95314ZM56.9217 7.72175C57.1907 7.8109 57.7401 8.12649 58.4422 9.15058C59.137 10.164 59.8151 11.6371 60.401 13.5572C61.5713 17.3924 62.1998 22.43 62.1998 27.6026C62.1998 32.7751 61.5713 37.8127 60.401 41.6479C59.8151 43.568 59.137 45.0411 58.4422 46.0545C57.7401 47.0786 57.1907 47.3942 56.9217 47.4834L59.2811 54.6026C61.6283 53.8246 63.368 52.1333 64.628 50.2955C65.8953 48.4471 66.8523 46.2035 67.5745 43.8369C69.0203 39.0987 69.6998 33.2832 69.6998 27.6026C69.6998 21.922 69.0203 16.1064 67.5745 11.3682C66.8523 9.00163 65.8953 6.75797 64.628 4.90956C63.368 3.07181 61.6283 1.38046 59.2811 0.602562L56.9217 7.72175ZM56.9217 47.4834C57.0925 47.4268 57.1673 47.4547 57.0442 47.4411C56.9027 47.4255 56.6733 47.3764 56.2724 47.252L54.0489 54.4148C55.0482 54.725 57.1012 55.325 59.2811 54.6026L56.9217 47.4834Z" fill="#D541AC"/>
</svg>
