<svg width="70" height="70" viewBox="0 0 70 70" fill="none" xmlns="http://www.w3.org/2000/svg">
<path d="M11.062 38.2544C13.1663 37.0801 15.6305 36.7257 17.9805 37.2593" stroke="#FCBE1D" stroke-width="7.5" stroke-linecap="round" stroke-linejoin="round"/>
<path d="M25.223 22.7176C23.8811 20.6947 23.325 18.251 23.6593 15.8466" stroke="#FCBE1D" stroke-width="7.5" stroke-linecap="round" stroke-linejoin="round"/>
<path d="M37.8339 5.23987C36.5128 9.28663 36.6867 13.6729 38.3238 17.6025" stroke="#FCBE1D" stroke-width="7.5" stroke-linecap="round" stroke-linejoin="round"/>
<path d="M35.7623 35.6566C32.484 38.891 28.2938 44.6132 25.5708 48.5129C23.9917 50.7744 24.6255 53.8757 26.9914 55.2934C38.1006 61.9506 50.3019 66.6808 61.8656 66.1637C64.0488 66.0661 65.788 64.3503 65.9151 62.1686C66.5886 50.6133 62.0227 38.3492 55.5159 27.1516C54.1302 24.7669 51.038 24.0914 48.7555 25.6396C44.8192 28.3095 39.0406 32.4222 35.7623 35.6566Z" fill="#FFEFC5" stroke="#FCBE1D" stroke-width="7.5" stroke-linecap="round" stroke-linejoin="round"/>
<path d="M9.48669 23.9307C8.61734 23.9307 7.9126 23.2259 7.9126 22.3566C7.9126 21.4872 8.61734 20.7825 9.48669 20.7825" stroke="#FCBE1D" stroke-width="7.5" stroke-linecap="round" stroke-linejoin="round"/>
<path d="M9.48792 20.7825C10.3573 20.7825 11.062 21.4872 11.062 22.3566C11.062 23.2259 10.3573 23.9307 9.48792 23.9307" stroke="#FCBE1D" stroke-width="7.5" stroke-linecap="round" stroke-linejoin="round"/>
</svg>
