<svg width="70" height="70" viewBox="0 0 70 70" fill="none" xmlns="http://www.w3.org/2000/svg">
<circle cx="17.8207" cy="16.322" r="12.1078" fill="#E8C7F3" stroke="#9640B4" stroke-width="7.5"/>
<circle cx="49.2915" cy="20.0566" r="8.37353" fill="#E8C7F3" stroke="#9640B4" stroke-width="7.5"/>
<path d="M20.4536 64.9578C18.0613 64.7507 16.1068 62.9067 15.754 60.5315C15.3048 57.5077 14.8535 54.3775 14.8535 51.1719C14.8535 47.9662 15.3048 44.8361 15.754 41.8123C16.1068 39.4371 18.0613 37.5931 20.4536 37.3859C20.8613 37.3506 21.2706 37.3148 21.6814 37.2788C25.7269 36.9247 29.9162 36.5579 34.2073 36.5579C38.4985 36.5579 42.6877 36.9247 46.7332 37.2788C47.144 37.3148 47.5533 37.3506 47.961 37.3859C50.3534 37.5931 52.3078 39.4371 52.6606 41.8123C52.8518 43.0996 53.0434 44.4061 53.2004 45.7295C57.964 43.6004 64.286 40.8163 64.286 40.8163V61.5279C64.286 61.5279 57.964 58.7438 53.2004 56.6146C53.0434 57.9379 52.8518 59.2443 52.6606 60.5315C52.3078 62.9067 50.3534 64.7507 47.961 64.9578C47.5533 64.9931 47.144 65.029 46.7332 65.0649C42.6877 65.4191 38.4985 65.7858 34.2073 65.7858C29.9162 65.7858 25.7269 65.4191 21.6814 65.0649C21.2706 65.029 20.8613 64.9931 20.4536 64.9578Z" fill="#E8C7F3" stroke="#9640B4" stroke-width="7.5" stroke-linejoin="round"/>
</svg>
