<svg width="70" height="70" viewBox="0 0 70 70" fill="none" xmlns="http://www.w3.org/2000/svg">
<path d="M14.5679 65.337C20.297 65.337 24.9414 60.6926 24.9414 54.9634C24.9414 49.2343 20.297 44.5899 14.5679 44.5899C8.83872 44.5899 4.19434 49.2343 4.19434 54.9634C4.19434 60.6926 8.83872 65.337 14.5679 65.337Z" fill="#CDDCEE" stroke="#284366" stroke-width="7.5" stroke-linecap="round" stroke-linejoin="round"/>
<path d="M55.3585 60.025C60.9796 60.025 65.5364 55.4682 65.5364 49.8471C65.5364 44.226 60.9796 39.6693 55.3585 39.6693C49.7375 39.6693 45.1807 44.226 45.1807 49.8471C45.1807 55.4682 49.7375 60.025 55.3585 60.025Z" fill="#CDDCEE" stroke="#284366" stroke-width="7.5" stroke-linecap="round" stroke-linejoin="round"/>
<path d="M65.5361 49.9127V23.0591M24.8853 32.4315L24.8853 54.9636" stroke="#284366" stroke-width="7.5" stroke-linecap="round" stroke-linejoin="round"/>
<path d="M24.8853 32.4292V22.5836C24.8853 18.0525 27.9283 14.0742 32.3181 12.9518C35.0955 12.2417 37.9139 11.5467 40.7723 10.8878C47.2133 9.40322 53.5518 8.17274 59.6728 6.98449C62.9453 6.34921 65.536 8.61179 65.536 11.9453V23.021C64.8584 23.2019 64.178 23.3838 63.4948 23.5665C57.4713 25.1775 51.2336 26.8457 44.7927 28.3303C38.3517 29.8149 32.0131 31.0454 25.8921 32.2337C25.5558 32.2989 25.2202 32.3641 24.8853 32.4292Z" fill="#CDDCEE" stroke="#284366" stroke-width="7.5"/>
</svg>
