<svg width="70" height="70" viewBox="0 0 70 70" fill="none" xmlns="http://www.w3.org/2000/svg">
<path d="M61.5566 11.4397L56.7497 25.6312C56.5838 25.9594 56.4973 26.3221 56.4973 26.6899C56.4973 27.0576 56.5838 27.4203 56.7497 27.7485L65.7339 39.7655C65.9921 40.1095 66.1481 40.5192 66.1842 40.9478C66.2202 41.3764 66.1348 41.8064 65.9377 42.1887C65.7406 42.5709 65.4398 42.8899 65.0698 43.1091C64.6997 43.3282 64.2754 43.4387 63.8455 43.4279H48.8528C48.4854 43.4387 48.125 43.5317 47.7982 43.7C47.4715 43.8684 47.1865 44.1078 46.9644 44.4007L38.6097 56.4177C38.3647 56.769 38.026 57.0445 37.6322 57.2128C37.2384 57.3812 36.8052 57.4357 36.382 57.3701C35.9587 57.3046 35.5623 57.1215 35.2379 56.8419C34.9135 56.5623 34.6741 56.1972 34.5468 55.7883L30.0833 41.4823C29.9815 41.1286 29.7916 40.8066 29.5314 40.5464C29.2711 40.2862 28.9491 40.0963 28.5955 39.9944L14.2895 35.531C13.8806 35.4037 13.5155 35.1643 13.2359 34.8398C12.9562 34.5154 12.7732 34.1191 12.7077 33.6958C12.6421 33.2726 12.6966 32.8394 12.8649 32.4456C13.0333 32.0518 13.3088 31.7131 13.66 31.4681L25.906 22.8272C26.1989 22.6051 26.4383 22.3202 26.6067 21.9934C26.775 21.6666 26.868 21.3063 26.8788 20.9388V5.94614C26.8948 5.55236 27.0122 5.16936 27.2196 4.83425C27.427 4.49914 27.7174 4.22327 28.0628 4.03334C28.4081 3.84341 28.7966 3.74586 29.1907 3.75013C29.5848 3.75441 29.9711 3.86037 30.3122 4.05775L42.3293 13.0419C42.6344 13.2538 42.9854 13.3902 43.3535 13.44C43.7216 13.4897 44.0962 13.4514 44.4466 13.328L58.6381 8.52122C59.0451 8.37819 59.4842 8.35307 59.9049 8.44878C60.3255 8.54449 60.7106 8.75712 61.0156 9.06216C61.3207 9.3672 61.5333 9.75224 61.629 10.1729C61.7247 10.5935 61.6996 11.0327 61.5566 11.4397Z" fill="#D7E0FF" stroke="#4147D5" stroke-width="7.5" stroke-linecap="round" stroke-linejoin="round"/>
<path d="M29.5412 40.5148L3.80615 66.2499" stroke="#4147D5" stroke-width="7.5" stroke-linecap="round" stroke-linejoin="round"/>
</svg>
