<svg width="26" height="25" viewBox="0 0 26 25" fill="none" xmlns="http://www.w3.org/2000/svg">
<path d="M23.206 0H1.80372C0.807505 0 0 0.80719 0 1.80302V23.197C0 24.1928 0.807505 25 1.80372 25H13.3597V15.332H10.1114V11.5479H13.3597V8.76293C13.3597 5.53341 15.3321 3.7756 18.2141 3.7756C19.5944 3.7756 20.7807 3.8784 21.1264 3.92437V7.2998H19.1391C17.5711 7.2998 17.2675 8.04462 17.2675 9.13773V11.5479H21.0165L20.528 15.332H17.2675V25H23.206C24.2023 25 25.0098 24.1928 25.0098 23.197V1.80302C25.0098 0.80719 24.2023 0 23.206 0Z" fill="white"/>
</svg>
