<svg width="63" height="63" viewBox="0 0 63 63" fill="none" xmlns="http://www.w3.org/2000/svg">
<path d="M54.9111 10.7304L50.6736 23.241C50.5273 23.5303 50.4511 23.85 50.4511 24.1742C50.4511 24.4984 50.5273 24.8181 50.6736 25.1074L58.5936 35.701C58.8212 36.0042 58.9588 36.3654 58.9905 36.7432C59.0223 37.121 58.947 37.5001 58.7733 37.8371C58.5995 38.1741 58.3343 38.4553 58.0081 38.6485C57.6819 38.8417 57.3079 38.9391 56.9289 38.9295H43.7121C43.3882 38.9391 43.0705 39.021 42.7825 39.1694C42.4944 39.3178 42.2432 39.5289 42.0474 39.7871L34.6824 50.3807C34.4664 50.6904 34.1678 50.9332 33.8206 51.0816C33.4734 51.23 33.0916 51.2781 32.7185 51.2203C32.3454 51.1625 31.996 51.0011 31.71 50.7546C31.424 50.5081 31.2129 50.1863 31.1007 49.8258L27.166 37.2144C27.0762 36.9027 26.9088 36.6188 26.6794 36.3894C26.45 36.16 26.1661 35.9926 25.8544 35.9028L13.243 31.9681C12.8825 31.8559 12.5607 31.6448 12.3141 31.3588C12.0676 31.0728 11.9063 30.7234 11.8485 30.3503C11.7907 29.9772 11.8387 29.5953 11.9871 29.2482C12.1356 28.901 12.3784 28.6024 12.6881 28.3864L23.4834 20.7691C23.7417 20.5733 23.9527 20.3222 24.1011 20.0341C24.2495 19.746 24.3315 19.4283 24.341 19.1044V5.88766C24.3551 5.54052 24.4586 5.2029 24.6414 4.90748C24.8243 4.61206 25.0803 4.36887 25.3848 4.20143C25.6892 4.034 26.0317 3.94801 26.3791 3.95178C26.7265 3.95555 27.067 4.04896 27.3678 4.22296L37.9613 12.1429C38.2303 12.3297 38.5397 12.45 38.8642 12.4938C39.1887 12.5377 39.519 12.5039 39.8278 12.3951L52.3383 8.15772C52.6971 8.03162 53.0842 8.00948 53.455 8.09385C53.8259 8.17822 54.1653 8.36567 54.4342 8.63458C54.7031 8.90348 54.8906 9.24291 54.9749 9.61373C55.0593 9.98455 55.0372 10.3717 54.9111 10.7304Z" fill="#D7E0FF" stroke="#4147D5" stroke-width="6.6116" stroke-linecap="round" stroke-linejoin="round"/>
<path d="M26.6881 36.3613L4.00146 59.048" stroke="#4147D5" stroke-width="6.6116" stroke-linecap="round" stroke-linejoin="round"/>
</svg>
