<svg width="63" height="63" viewBox="0 0 63 63" fill="none" xmlns="http://www.w3.org/2000/svg">
<path d="M13.4885 58.2436C18.539 58.2436 22.6332 54.1494 22.6332 49.0988C22.6332 44.0483 18.539 39.9541 13.4885 39.9541C8.43799 39.9541 4.34375 44.0483 4.34375 49.0988C4.34375 54.1494 8.43799 58.2436 13.4885 58.2436Z" fill="#129A0F" fill-opacity="0.2" stroke="#129A0F" stroke-width="6.6116" stroke-linecap="round" stroke-linejoin="round"/>
<path d="M49.4469 53.5608C54.4021 53.5608 58.4192 49.5437 58.4192 44.5885C58.4192 39.6332 54.4021 35.6162 49.4469 35.6162C44.4916 35.6162 40.4746 39.6332 40.4746 44.5885C40.4746 49.5437 44.4916 53.5608 49.4469 53.5608Z" fill="#129A0F" fill-opacity="0.2" stroke="#129A0F" stroke-width="6.6116" stroke-linecap="round" stroke-linejoin="round"/>
<path d="M58.4191 44.6463V20.9736M22.5835 29.2358L22.5835 49.0989" stroke="#129A0F" stroke-width="6.6116" stroke-linecap="round" stroke-linejoin="round"/>
<path d="M22.5835 29.234V20.5547C22.5835 16.5603 25.2661 13.0532 29.1359 12.0638C31.5843 11.4378 34.0688 10.8251 36.5887 10.2443C42.2667 8.93556 47.8544 7.85083 53.2503 6.80333C56.1352 6.2433 58.419 8.23786 58.419 11.1766V20.9402C57.8216 21.0997 57.2218 21.2601 56.6196 21.4212C51.3096 22.8413 45.8108 24.3119 40.1328 25.6207C34.4548 26.9294 28.8671 28.0141 23.4711 29.0616C23.1746 29.1192 22.8788 29.1766 22.5835 29.234Z" fill="#129A0F" fill-opacity="0.2" stroke="#129A0F" stroke-width="6.6116"/>
</svg>
