<svg width="63" height="63" viewBox="0 0 63 63" fill="none" xmlns="http://www.w3.org/2000/svg">
<circle cx="16.3558" cy="15.0345" r="10.6736" fill="#C941D5" fill-opacity="0.2" stroke="#C941D5" stroke-width="6.6116"/>
<circle cx="44.0984" cy="18.3265" r="7.38165" fill="#C941D5" fill-opacity="0.2" stroke="#C941D5" stroke-width="6.6116"/>
<path d="M18.6765 57.9094C16.5675 57.7268 14.8446 56.1012 14.5336 54.0073C14.1376 51.3417 13.7397 48.5824 13.7397 45.7564C13.7397 42.9305 14.1376 40.1711 14.5336 37.5055C14.8446 35.4117 16.5675 33.7861 18.6765 33.6035C19.0359 33.5724 19.3967 33.5408 19.7588 33.5091C23.3251 33.1968 27.0182 32.8735 30.801 32.8735C34.5839 32.8735 38.2769 33.1968 41.8432 33.5091C42.2053 33.5408 42.5661 33.5724 42.9256 33.6035C45.0345 33.7861 46.7574 35.4117 47.0684 37.5055C47.237 38.6403 47.4059 39.7921 47.5443 40.9587C51.7437 39.0818 57.3168 36.6275 57.3168 36.6275V54.8857C57.3168 54.8857 51.7436 52.4314 47.5443 50.5544C47.4059 51.721 47.237 52.8727 47.0684 54.0073C46.7574 56.1012 45.0345 57.7268 42.9256 57.9094C42.5661 57.9405 42.2053 57.9721 41.8432 58.0038C38.2769 58.316 34.5839 58.6393 30.801 58.6393C27.0182 58.6393 23.3252 58.316 19.7589 58.0038C19.3967 57.9721 19.0359 57.9405 18.6765 57.9094Z" fill="#C941D5" fill-opacity="0.2" stroke="#C941D5" stroke-width="6.6116" stroke-linejoin="round"/>
</svg>
