<svg width="62" height="63" viewBox="0 0 62 63" fill="none" xmlns="http://www.w3.org/2000/svg">
<path d="M9.95654 34.3692C11.8116 33.334 13.9839 33.0216 16.0555 33.492" stroke="#FFB23F" stroke-width="6.6116" stroke-linecap="round" stroke-linejoin="round"/>
<path d="M22.4401 20.6724C21.2572 18.8891 20.7669 16.7349 21.0616 14.6152" stroke="#FFB23F" stroke-width="6.6116" stroke-linecap="round" stroke-linejoin="round"/>
<path d="M33.5575 5.26514C32.3929 8.83255 32.5462 12.6993 33.9894 16.1633" stroke="#FFB23F" stroke-width="6.6116" stroke-linecap="round" stroke-linejoin="round"/>
<path d="M31.7314 32.0791C28.8415 34.9304 25.1476 39.9747 22.7471 43.4126C21.3551 45.4061 21.9138 48.14 23.9995 49.3899C33.7927 55.2584 44.5487 59.4284 54.7427 58.9725C56.6672 58.8864 58.2005 57.3739 58.3125 55.4507C58.9063 45.2641 54.8812 34.4528 49.1452 24.5816C47.9236 22.4794 45.1977 21.8838 43.1855 23.2486C39.7155 25.6023 34.6214 29.2278 31.7314 32.0791Z" fill="#FFB23F" fill-opacity="0.2" stroke="#FFB23F" stroke-width="6.6116" stroke-linecap="round" stroke-linejoin="round"/>
<path d="M8.56781 21.7421C7.80144 21.7421 7.18018 21.1208 7.18018 20.3544C7.18018 19.5881 7.80144 18.9668 8.56781 18.9668" stroke="#FFB23F" stroke-width="6.6116" stroke-linecap="round" stroke-linejoin="round"/>
<path d="M8.56891 18.9669C9.33528 18.9669 9.95654 19.5882 9.95654 20.3545C9.95654 21.1209 9.33528 21.7422 8.56891 21.7422" stroke="#FFB23F" stroke-width="6.6116" stroke-linecap="round" stroke-linejoin="round"/>
</svg>
