<svg width="47" height="61" viewBox="0 0 47 61" fill="none" xmlns="http://www.w3.org/2000/svg">
<path d="M21.0156 10.7496C21.1371 8.01488 22.1118 5.3622 22.8267 4.05371C22.9066 4.10037 22.9915 4.14979 23.081 4.20192C25.2109 5.44211 29.9837 8.2212 33.7835 12.1147C36.4348 14.1795 38.5443 17.6092 38.5443 21.7269C38.5443 24.9092 37.3307 27.4651 36.1812 29.8861C34.055 34.364 32.148 37.8342 38.5443 44.5C35.1801 39.9538 14.366 44.292 13.78 41.5C12.6723 36.2224 13.0313 38.1109 13.78 35.8872C14.2086 34.6142 14.5584 33.5752 14.391 32.4652C9.27998 34.406 5.86088 29.989 4.11257 27.7304C3.86093 27.4054 3.6439 27.125 3.46143 26.9147C5.74944 23.4611 10.1245 18.0576 13.1499 14.9458C15.3365 12.6966 18.1163 11.4343 21.0156 10.7496Z" fill="#0BA198" fill-opacity="0.2" stroke="#0BA298" stroke-width="6.6116" stroke-linecap="round" stroke-linejoin="round"/>
<path d="M12.604 32.9494C15.2842 32.3136 16.8332 31.5046 18.9775 30.3486" stroke="#0BA298" stroke-width="6.6116" stroke-linecap="round" stroke-linejoin="round"/>
<path d="M43.1967 50.7632C43.453 52.7861 43.6443 54.8502 43.6443 56.9466H5.54248C5.54248 54.8502 5.73369 52.7861 5.99008 50.7632C6.52264 46.561 10.0498 43.2846 14.2699 42.9214C17.6256 42.6326 21.0747 42.3789 24.5934 42.3789C28.112 42.3789 31.5611 42.6326 34.9168 42.9214C39.1369 43.2846 42.6641 46.561 43.1967 50.7632Z" fill="#0BA198" fill-opacity="0.2" stroke="#0BA298" stroke-width="6.6116" stroke-linejoin="round"/>
</svg>
